<svg aria-hidden="true" style="position:absolute;width:0;height:0" xmlns="http://www.w3.org/2000/svg" overflow="hidden"><defs><symbol id="vertical" viewBox="0 0 32 32"><path d="M0 0h24v24H0V0z" fill="none"/><path d="M17 1.01L7 1c-1.1 0-1.99.9-1.99 2v18c0 1.1.89 2 1.99 2h10c1.1 0 2-.9 2-2V3c0-1.1-.9-1.99-2-1.99zM17 19H7V5h10v14z"/></symbol><symbol id="horizontal" viewBox="0 0 32 32"><path d="M0 0h24v24H0V0z" fill="none"/><path d="M1.01 7L1 17c0 1.1.9 2 2 2h18c1.1 0 2-.9 2-2V7c0-1.1-.9-2-2-2H3c-1.1 0-1.99.9-1.99 2zM19 7v10H5V7h14z"/></symbol></defs></svg>